<mxfile host="Electron" modified="2023-06-25T04:49:12.069Z" agent="Mozilla/5.0 (X11; Linux x86_64) AppleWebKit/537.36 (KHTML, like Gecko) draw.io/21.4.0 Chrome/112.0.5615.204 Electron/24.5.1 Safari/537.36" etag="ruX-AIxK3QnNYMhcuUqI" version="21.4.0" type="device">
  <diagram name="Page-1" id="7e0a89b8-554c-2b80-1dc8-d5c74ca68de4">
    <mxGraphModel dx="2074" dy="878" grid="1" gridSize="10" guides="1" tooltips="1" connect="1" arrows="1" fold="1" page="1" pageScale="1" pageWidth="1654" pageHeight="1169" background="none" math="0" shadow="0">
      <root>
        <mxCell id="0" />
        <mxCell id="1" parent="0" />
        <mxCell id="d_yNzBiEUvDGTnpqF6GJ-171" value="&lt;font style=&quot;font-size: 25px;&quot;&gt;&lt;b&gt;2&lt;/b&gt;&lt;/font&gt;" style="text;html=1;align=center;verticalAlign=middle;resizable=0;points=[];autosize=1;strokeColor=none;fillColor=none;" parent="1" vertex="1">
          <mxGeometry x="453" y="890" width="40" height="40" as="geometry" />
        </mxCell>
        <mxCell id="d_yNzBiEUvDGTnpqF6GJ-173" value="&lt;font style=&quot;font-size: 25px;&quot;&gt;&lt;b&gt;0&lt;/b&gt;&lt;/font&gt;" style="text;html=1;align=center;verticalAlign=middle;resizable=0;points=[];autosize=1;strokeColor=none;fillColor=none;" parent="1" vertex="1">
          <mxGeometry x="231.5" y="890" width="40" height="40" as="geometry" />
        </mxCell>
        <mxCell id="d_yNzBiEUvDGTnpqF6GJ-174" value="&lt;font style=&quot;font-size: 25px;&quot;&gt;&lt;b&gt;1&lt;/b&gt;&lt;/font&gt;" style="text;html=1;align=center;verticalAlign=middle;resizable=0;points=[];autosize=1;strokeColor=none;fillColor=none;" parent="1" vertex="1">
          <mxGeometry x="342" y="890" width="40" height="40" as="geometry" />
        </mxCell>
        <mxCell id="d_yNzBiEUvDGTnpqF6GJ-177" value="&lt;font style=&quot;font-size: 25px;&quot;&gt;&lt;b&gt;3&lt;/b&gt;&lt;/font&gt;" style="text;html=1;align=center;verticalAlign=middle;resizable=0;points=[];autosize=1;strokeColor=none;fillColor=none;" parent="1" vertex="1">
          <mxGeometry x="564" y="890" width="40" height="40" as="geometry" />
        </mxCell>
        <mxCell id="d_yNzBiEUvDGTnpqF6GJ-327" style="edgeStyle=orthogonalEdgeStyle;rounded=0;orthogonalLoop=1;jettySize=auto;html=1;endArrow=none;endFill=0;" parent="1" source="d_yNzBiEUvDGTnpqF6GJ-1" edge="1">
          <mxGeometry relative="1" as="geometry">
            <mxPoint x="620" y="690" as="targetPoint" />
          </mxGeometry>
        </mxCell>
        <mxCell id="d_yNzBiEUvDGTnpqF6GJ-330" style="edgeStyle=orthogonalEdgeStyle;rounded=0;orthogonalLoop=1;jettySize=auto;html=1;entryX=0.003;entryY=0.914;entryDx=0;entryDy=0;entryPerimeter=0;endArrow=none;endFill=0;" parent="1" source="d_yNzBiEUvDGTnpqF6GJ-1" target="d_yNzBiEUvDGTnpqF6GJ-324" edge="1">
          <mxGeometry relative="1" as="geometry">
            <mxPoint x="1212" y="940" as="targetPoint" />
            <Array as="points">
              <mxPoint x="1222" y="690" />
              <mxPoint x="1222" y="933" />
              <mxPoint x="1373" y="933" />
            </Array>
          </mxGeometry>
        </mxCell>
        <mxCell id="d_yNzBiEUvDGTnpqF6GJ-1" value="" style="pointerEvents=1;verticalLabelPosition=bottom;shadow=0;dashed=0;align=center;html=1;verticalAlign=top;shape=mxgraph.electrical.resistors.resistor_2;" parent="1" vertex="1">
          <mxGeometry x="700" y="680" width="100" height="20" as="geometry" />
        </mxCell>
        <mxCell id="d_yNzBiEUvDGTnpqF6GJ-22" style="edgeStyle=orthogonalEdgeStyle;rounded=0;orthogonalLoop=1;jettySize=auto;html=1;exitX=0;exitY=0.57;exitDx=0;exitDy=0;exitPerimeter=0;endArrow=none;endFill=0;" parent="1" source="d_yNzBiEUvDGTnpqF6GJ-6" edge="1">
          <mxGeometry relative="1" as="geometry">
            <mxPoint x="252" y="419.9999999999999" as="targetPoint" />
          </mxGeometry>
        </mxCell>
        <mxCell id="d_yNzBiEUvDGTnpqF6GJ-41" style="edgeStyle=orthogonalEdgeStyle;rounded=0;orthogonalLoop=1;jettySize=auto;html=1;exitX=1;exitY=0.57;exitDx=0;exitDy=0;exitPerimeter=0;endArrow=none;endFill=0;" parent="1" source="d_yNzBiEUvDGTnpqF6GJ-6" edge="1">
          <mxGeometry relative="1" as="geometry">
            <mxPoint x="202" y="540" as="targetPoint" />
            <Array as="points">
              <mxPoint x="199" y="540" />
            </Array>
          </mxGeometry>
        </mxCell>
        <mxCell id="d_yNzBiEUvDGTnpqF6GJ-6" value="" style="verticalLabelPosition=bottom;shadow=0;dashed=0;align=center;html=1;verticalAlign=top;shape=mxgraph.electrical.opto_electronics.led_2;pointerEvents=1;rotation=90;" parent="1" vertex="1">
          <mxGeometry x="177" y="470" width="50" height="40" as="geometry" />
        </mxCell>
        <mxCell id="d_yNzBiEUvDGTnpqF6GJ-30" style="edgeStyle=orthogonalEdgeStyle;rounded=0;orthogonalLoop=1;jettySize=auto;html=1;exitX=0;exitY=0.57;exitDx=0;exitDy=0;exitPerimeter=0;endArrow=none;endFill=0;" parent="1" source="d_yNzBiEUvDGTnpqF6GJ-7" edge="1">
          <mxGeometry relative="1" as="geometry">
            <mxPoint x="362" y="419.9999999999999" as="targetPoint" />
          </mxGeometry>
        </mxCell>
        <mxCell id="d_yNzBiEUvDGTnpqF6GJ-44" style="edgeStyle=orthogonalEdgeStyle;rounded=0;orthogonalLoop=1;jettySize=auto;html=1;exitX=1;exitY=0.57;exitDx=0;exitDy=0;exitPerimeter=0;endArrow=none;endFill=0;" parent="1" source="d_yNzBiEUvDGTnpqF6GJ-7" edge="1">
          <mxGeometry relative="1" as="geometry">
            <mxPoint x="309.8333333333335" y="540" as="targetPoint" />
          </mxGeometry>
        </mxCell>
        <mxCell id="d_yNzBiEUvDGTnpqF6GJ-7" value="" style="verticalLabelPosition=bottom;shadow=0;dashed=0;align=center;html=1;verticalAlign=top;shape=mxgraph.electrical.opto_electronics.led_2;pointerEvents=1;rotation=90;" parent="1" vertex="1">
          <mxGeometry x="288" y="470" width="50" height="40" as="geometry" />
        </mxCell>
        <mxCell id="d_yNzBiEUvDGTnpqF6GJ-45" style="edgeStyle=orthogonalEdgeStyle;rounded=0;orthogonalLoop=1;jettySize=auto;html=1;exitX=1;exitY=0.57;exitDx=0;exitDy=0;exitPerimeter=0;endArrow=none;endFill=0;" parent="1" source="d_yNzBiEUvDGTnpqF6GJ-10" edge="1">
          <mxGeometry relative="1" as="geometry">
            <mxPoint x="417.3333333333335" y="540" as="targetPoint" />
          </mxGeometry>
        </mxCell>
        <mxCell id="d_yNzBiEUvDGTnpqF6GJ-50" style="edgeStyle=orthogonalEdgeStyle;rounded=0;orthogonalLoop=1;jettySize=auto;html=1;exitX=0;exitY=0.57;exitDx=0;exitDy=0;exitPerimeter=0;endArrow=none;endFill=0;" parent="1" source="d_yNzBiEUvDGTnpqF6GJ-10" edge="1">
          <mxGeometry relative="1" as="geometry">
            <mxPoint x="472" y="419.9999999999999" as="targetPoint" />
          </mxGeometry>
        </mxCell>
        <mxCell id="d_yNzBiEUvDGTnpqF6GJ-10" value="" style="verticalLabelPosition=bottom;shadow=0;dashed=0;align=center;html=1;verticalAlign=top;shape=mxgraph.electrical.opto_electronics.led_2;pointerEvents=1;rotation=90;" parent="1" vertex="1">
          <mxGeometry x="395" y="470" width="50" height="40" as="geometry" />
        </mxCell>
        <mxCell id="d_yNzBiEUvDGTnpqF6GJ-51" style="edgeStyle=orthogonalEdgeStyle;rounded=0;orthogonalLoop=1;jettySize=auto;html=1;exitX=0;exitY=0.57;exitDx=0;exitDy=0;exitPerimeter=0;endArrow=none;endFill=0;" parent="1" source="d_yNzBiEUvDGTnpqF6GJ-11" edge="1">
          <mxGeometry relative="1" as="geometry">
            <mxPoint x="582" y="419.9999999999999" as="targetPoint" />
          </mxGeometry>
        </mxCell>
        <mxCell id="d_yNzBiEUvDGTnpqF6GJ-52" style="edgeStyle=orthogonalEdgeStyle;rounded=0;orthogonalLoop=1;jettySize=auto;html=1;exitX=1;exitY=0.57;exitDx=0;exitDy=0;exitPerimeter=0;endArrow=none;endFill=0;" parent="1" source="d_yNzBiEUvDGTnpqF6GJ-11" edge="1">
          <mxGeometry relative="1" as="geometry">
            <mxPoint x="527.3333333333335" y="540" as="targetPoint" />
          </mxGeometry>
        </mxCell>
        <mxCell id="d_yNzBiEUvDGTnpqF6GJ-11" value="" style="verticalLabelPosition=bottom;shadow=0;dashed=0;align=center;html=1;verticalAlign=top;shape=mxgraph.electrical.opto_electronics.led_2;pointerEvents=1;rotation=90;" parent="1" vertex="1">
          <mxGeometry x="505" y="470" width="50" height="40" as="geometry" />
        </mxCell>
        <mxCell id="d_yNzBiEUvDGTnpqF6GJ-26" style="edgeStyle=orthogonalEdgeStyle;rounded=0;orthogonalLoop=1;jettySize=auto;html=1;exitX=0;exitY=0.57;exitDx=0;exitDy=0;exitPerimeter=0;endArrow=none;endFill=0;" parent="1" source="d_yNzBiEUvDGTnpqF6GJ-12" edge="1">
          <mxGeometry relative="1" as="geometry">
            <mxPoint x="252" y="580" as="targetPoint" />
          </mxGeometry>
        </mxCell>
        <mxCell id="d_yNzBiEUvDGTnpqF6GJ-59" style="edgeStyle=orthogonalEdgeStyle;rounded=0;orthogonalLoop=1;jettySize=auto;html=1;exitX=1;exitY=0.57;exitDx=0;exitDy=0;exitPerimeter=0;endArrow=none;endFill=0;" parent="1" source="d_yNzBiEUvDGTnpqF6GJ-12" edge="1">
          <mxGeometry relative="1" as="geometry">
            <mxPoint x="199" y="690" as="targetPoint" />
            <Array as="points">
              <mxPoint x="199" y="675" />
            </Array>
          </mxGeometry>
        </mxCell>
        <mxCell id="d_yNzBiEUvDGTnpqF6GJ-12" value="" style="verticalLabelPosition=bottom;shadow=0;dashed=0;align=center;html=1;verticalAlign=top;shape=mxgraph.electrical.opto_electronics.led_2;pointerEvents=1;rotation=90;" parent="1" vertex="1">
          <mxGeometry x="177" y="630" width="50" height="40" as="geometry" />
        </mxCell>
        <mxCell id="d_yNzBiEUvDGTnpqF6GJ-31" style="edgeStyle=orthogonalEdgeStyle;rounded=0;orthogonalLoop=1;jettySize=auto;html=1;exitX=0;exitY=0.57;exitDx=0;exitDy=0;exitPerimeter=0;endArrow=none;endFill=0;" parent="1" source="d_yNzBiEUvDGTnpqF6GJ-13" edge="1">
          <mxGeometry relative="1" as="geometry">
            <mxPoint x="362" y="580" as="targetPoint" />
          </mxGeometry>
        </mxCell>
        <mxCell id="d_yNzBiEUvDGTnpqF6GJ-47" style="edgeStyle=orthogonalEdgeStyle;rounded=0;orthogonalLoop=1;jettySize=auto;html=1;exitX=1;exitY=0.57;exitDx=0;exitDy=0;exitPerimeter=0;endArrow=none;endFill=0;" parent="1" source="d_yNzBiEUvDGTnpqF6GJ-13" edge="1">
          <mxGeometry relative="1" as="geometry">
            <mxPoint x="309.8333333333335" y="690" as="targetPoint" />
          </mxGeometry>
        </mxCell>
        <mxCell id="d_yNzBiEUvDGTnpqF6GJ-13" value="" style="verticalLabelPosition=bottom;shadow=0;dashed=0;align=center;html=1;verticalAlign=top;shape=mxgraph.electrical.opto_electronics.led_2;pointerEvents=1;rotation=90;" parent="1" vertex="1">
          <mxGeometry x="288" y="630" width="50" height="40" as="geometry" />
        </mxCell>
        <mxCell id="d_yNzBiEUvDGTnpqF6GJ-28" style="edgeStyle=orthogonalEdgeStyle;rounded=0;orthogonalLoop=1;jettySize=auto;html=1;exitX=0;exitY=0.57;exitDx=0;exitDy=0;exitPerimeter=0;endArrow=none;endFill=0;" parent="1" source="d_yNzBiEUvDGTnpqF6GJ-14" edge="1">
          <mxGeometry relative="1" as="geometry">
            <mxPoint x="252" y="750" as="targetPoint" />
          </mxGeometry>
        </mxCell>
        <mxCell id="d_yNzBiEUvDGTnpqF6GJ-54" style="edgeStyle=orthogonalEdgeStyle;rounded=0;orthogonalLoop=1;jettySize=auto;html=1;exitX=1;exitY=0.57;exitDx=0;exitDy=0;exitPerimeter=0;endArrow=none;endFill=0;" parent="1" source="d_yNzBiEUvDGTnpqF6GJ-14" edge="1">
          <mxGeometry relative="1" as="geometry">
            <mxPoint x="202" y="870" as="targetPoint" />
            <Array as="points">
              <mxPoint x="199" y="870" />
            </Array>
          </mxGeometry>
        </mxCell>
        <mxCell id="d_yNzBiEUvDGTnpqF6GJ-14" value="" style="verticalLabelPosition=bottom;shadow=0;dashed=0;align=center;html=1;verticalAlign=top;shape=mxgraph.electrical.opto_electronics.led_2;pointerEvents=1;rotation=90;" parent="1" vertex="1">
          <mxGeometry x="177" y="800" width="50" height="40" as="geometry" />
        </mxCell>
        <mxCell id="d_yNzBiEUvDGTnpqF6GJ-32" style="edgeStyle=orthogonalEdgeStyle;rounded=0;orthogonalLoop=1;jettySize=auto;html=1;exitX=0;exitY=0.57;exitDx=0;exitDy=0;exitPerimeter=0;endArrow=none;endFill=0;" parent="1" source="d_yNzBiEUvDGTnpqF6GJ-15" edge="1">
          <mxGeometry relative="1" as="geometry">
            <mxPoint x="362" y="750" as="targetPoint" />
          </mxGeometry>
        </mxCell>
        <mxCell id="d_yNzBiEUvDGTnpqF6GJ-53" style="edgeStyle=orthogonalEdgeStyle;rounded=0;orthogonalLoop=1;jettySize=auto;html=1;exitX=1;exitY=0.57;exitDx=0;exitDy=0;exitPerimeter=0;endArrow=none;endFill=0;" parent="1" source="d_yNzBiEUvDGTnpqF6GJ-15" edge="1">
          <mxGeometry relative="1" as="geometry">
            <mxPoint x="309.8333333333335" y="870" as="targetPoint" />
          </mxGeometry>
        </mxCell>
        <mxCell id="d_yNzBiEUvDGTnpqF6GJ-15" value="" style="verticalLabelPosition=bottom;shadow=0;dashed=0;align=center;html=1;verticalAlign=top;shape=mxgraph.electrical.opto_electronics.led_2;pointerEvents=1;rotation=90;" parent="1" vertex="1">
          <mxGeometry x="288" y="800" width="50" height="40" as="geometry" />
        </mxCell>
        <mxCell id="d_yNzBiEUvDGTnpqF6GJ-46" style="edgeStyle=orthogonalEdgeStyle;rounded=0;orthogonalLoop=1;jettySize=auto;html=1;exitX=1;exitY=0.57;exitDx=0;exitDy=0;exitPerimeter=0;endArrow=none;endFill=0;" parent="1" source="d_yNzBiEUvDGTnpqF6GJ-16" edge="1">
          <mxGeometry relative="1" as="geometry">
            <mxPoint x="417.3333333333335" y="690" as="targetPoint" />
          </mxGeometry>
        </mxCell>
        <mxCell id="d_yNzBiEUvDGTnpqF6GJ-49" style="edgeStyle=orthogonalEdgeStyle;rounded=0;orthogonalLoop=1;jettySize=auto;html=1;exitX=0;exitY=0.57;exitDx=0;exitDy=0;exitPerimeter=0;endArrow=none;endFill=0;" parent="1" source="d_yNzBiEUvDGTnpqF6GJ-16" edge="1">
          <mxGeometry relative="1" as="geometry">
            <mxPoint x="472" y="580" as="targetPoint" />
          </mxGeometry>
        </mxCell>
        <mxCell id="d_yNzBiEUvDGTnpqF6GJ-16" value="" style="verticalLabelPosition=bottom;shadow=0;dashed=0;align=center;html=1;verticalAlign=top;shape=mxgraph.electrical.opto_electronics.led_2;pointerEvents=1;rotation=90;" parent="1" vertex="1">
          <mxGeometry x="395" y="630" width="50" height="40" as="geometry" />
        </mxCell>
        <mxCell id="d_yNzBiEUvDGTnpqF6GJ-48" style="edgeStyle=orthogonalEdgeStyle;rounded=0;orthogonalLoop=1;jettySize=auto;html=1;exitX=0;exitY=0.57;exitDx=0;exitDy=0;exitPerimeter=0;endArrow=none;endFill=0;" parent="1" source="d_yNzBiEUvDGTnpqF6GJ-17" edge="1">
          <mxGeometry relative="1" as="geometry">
            <mxPoint x="582" y="570" as="targetPoint" />
          </mxGeometry>
        </mxCell>
        <mxCell id="d_yNzBiEUvDGTnpqF6GJ-339" style="edgeStyle=orthogonalEdgeStyle;rounded=0;orthogonalLoop=1;jettySize=auto;html=1;exitX=0.835;exitY=0.571;exitDx=0;exitDy=0;exitPerimeter=0;endArrow=none;endFill=0;" parent="1" source="d_yNzBiEUvDGTnpqF6GJ-17" edge="1">
          <mxGeometry relative="1" as="geometry">
            <mxPoint x="527" y="690" as="targetPoint" />
            <mxPoint x="522.1999999999999" y="675" as="sourcePoint" />
            <Array as="points">
              <mxPoint x="527" y="675" />
              <mxPoint x="527" y="675" />
            </Array>
          </mxGeometry>
        </mxCell>
        <mxCell id="d_yNzBiEUvDGTnpqF6GJ-17" value="" style="verticalLabelPosition=bottom;shadow=0;dashed=0;align=center;html=1;verticalAlign=top;shape=mxgraph.electrical.opto_electronics.led_2;pointerEvents=1;rotation=90;" parent="1" vertex="1">
          <mxGeometry x="505" y="630" width="50" height="40" as="geometry" />
        </mxCell>
        <mxCell id="d_yNzBiEUvDGTnpqF6GJ-55" style="edgeStyle=orthogonalEdgeStyle;rounded=0;orthogonalLoop=1;jettySize=auto;html=1;exitX=1;exitY=0.57;exitDx=0;exitDy=0;exitPerimeter=0;endArrow=none;endFill=0;" parent="1" source="d_yNzBiEUvDGTnpqF6GJ-18" edge="1">
          <mxGeometry relative="1" as="geometry">
            <mxPoint x="417.3333333333335" y="870" as="targetPoint" />
          </mxGeometry>
        </mxCell>
        <mxCell id="d_yNzBiEUvDGTnpqF6GJ-56" style="edgeStyle=orthogonalEdgeStyle;rounded=0;orthogonalLoop=1;jettySize=auto;html=1;exitX=0;exitY=0.57;exitDx=0;exitDy=0;exitPerimeter=0;endArrow=none;endFill=0;" parent="1" source="d_yNzBiEUvDGTnpqF6GJ-18" edge="1">
          <mxGeometry relative="1" as="geometry">
            <mxPoint x="472" y="740" as="targetPoint" />
            <Array as="points">
              <mxPoint x="417" y="770" />
              <mxPoint x="473" y="770" />
              <mxPoint x="473" y="740" />
            </Array>
          </mxGeometry>
        </mxCell>
        <mxCell id="d_yNzBiEUvDGTnpqF6GJ-18" value="" style="verticalLabelPosition=bottom;shadow=0;dashed=0;align=center;html=1;verticalAlign=top;shape=mxgraph.electrical.opto_electronics.led_2;pointerEvents=1;rotation=90;" parent="1" vertex="1">
          <mxGeometry x="395" y="800" width="50" height="40" as="geometry" />
        </mxCell>
        <mxCell id="d_yNzBiEUvDGTnpqF6GJ-57" style="edgeStyle=orthogonalEdgeStyle;rounded=0;orthogonalLoop=1;jettySize=auto;html=1;exitX=0;exitY=0.57;exitDx=0;exitDy=0;exitPerimeter=0;endArrow=none;endFill=0;" parent="1" source="d_yNzBiEUvDGTnpqF6GJ-19" edge="1">
          <mxGeometry relative="1" as="geometry">
            <mxPoint x="582" y="750" as="targetPoint" />
          </mxGeometry>
        </mxCell>
        <mxCell id="d_yNzBiEUvDGTnpqF6GJ-58" style="edgeStyle=orthogonalEdgeStyle;rounded=0;orthogonalLoop=1;jettySize=auto;html=1;exitX=1;exitY=0.57;exitDx=0;exitDy=0;exitPerimeter=0;endArrow=none;endFill=0;" parent="1" source="d_yNzBiEUvDGTnpqF6GJ-19" edge="1">
          <mxGeometry relative="1" as="geometry">
            <mxPoint x="527.3333333333335" y="870" as="targetPoint" />
          </mxGeometry>
        </mxCell>
        <mxCell id="d_yNzBiEUvDGTnpqF6GJ-19" value="" style="verticalLabelPosition=bottom;shadow=0;dashed=0;align=center;html=1;verticalAlign=top;shape=mxgraph.electrical.opto_electronics.led_2;pointerEvents=1;rotation=90;" parent="1" vertex="1">
          <mxGeometry x="505" y="800" width="50" height="40" as="geometry" />
        </mxCell>
        <mxCell id="d_yNzBiEUvDGTnpqF6GJ-20" value="" style="endArrow=none;html=1;rounded=0;" parent="1" edge="1">
          <mxGeometry width="50" height="50" relative="1" as="geometry">
            <mxPoint x="252" y="870" as="sourcePoint" />
            <mxPoint x="252" y="230" as="targetPoint" />
          </mxGeometry>
        </mxCell>
        <mxCell id="d_yNzBiEUvDGTnpqF6GJ-23" value="" style="endArrow=none;html=1;rounded=0;" parent="1" edge="1">
          <mxGeometry width="50" height="50" relative="1" as="geometry">
            <mxPoint x="362" y="870" as="sourcePoint" />
            <mxPoint x="362" y="270" as="targetPoint" />
          </mxGeometry>
        </mxCell>
        <mxCell id="d_yNzBiEUvDGTnpqF6GJ-24" value="" style="endArrow=none;html=1;rounded=0;" parent="1" edge="1">
          <mxGeometry width="50" height="50" relative="1" as="geometry">
            <mxPoint x="472" y="870" as="sourcePoint" />
            <mxPoint x="472" y="320" as="targetPoint" />
          </mxGeometry>
        </mxCell>
        <mxCell id="d_yNzBiEUvDGTnpqF6GJ-25" value="" style="endArrow=none;html=1;rounded=0;" parent="1" edge="1">
          <mxGeometry width="50" height="50" relative="1" as="geometry">
            <mxPoint x="582" y="870" as="sourcePoint" />
            <mxPoint x="582" y="360" as="targetPoint" />
          </mxGeometry>
        </mxCell>
        <mxCell id="d_yNzBiEUvDGTnpqF6GJ-40" value="" style="endArrow=none;html=1;rounded=0;endFill=0;" parent="1" edge="1">
          <mxGeometry width="50" height="50" relative="1" as="geometry">
            <mxPoint x="202" y="540" as="sourcePoint" />
            <mxPoint x="642" y="540" as="targetPoint" />
          </mxGeometry>
        </mxCell>
        <mxCell id="d_yNzBiEUvDGTnpqF6GJ-42" value="" style="endArrow=none;html=1;rounded=0;endFill=0;" parent="1" edge="1">
          <mxGeometry width="50" height="50" relative="1" as="geometry">
            <mxPoint x="202" y="690" as="sourcePoint" />
            <mxPoint x="642" y="690" as="targetPoint" />
          </mxGeometry>
        </mxCell>
        <mxCell id="d_yNzBiEUvDGTnpqF6GJ-43" value="" style="endArrow=none;html=1;rounded=0;endFill=0;" parent="1" edge="1">
          <mxGeometry width="50" height="50" relative="1" as="geometry">
            <mxPoint x="202" y="870" as="sourcePoint" />
            <mxPoint x="642" y="870" as="targetPoint" />
          </mxGeometry>
        </mxCell>
        <mxCell id="d_yNzBiEUvDGTnpqF6GJ-298" value="&lt;font style=&quot;font-size: 25px;&quot;&gt;&lt;b&gt;2&lt;/b&gt;&lt;/font&gt;" style="text;html=1;align=center;verticalAlign=middle;resizable=0;points=[];autosize=1;strokeColor=none;fillColor=none;flipV=0;flipH=1;" parent="1" vertex="1">
          <mxGeometry x="132" y="516" width="40" height="40" as="geometry" />
        </mxCell>
        <mxCell id="d_yNzBiEUvDGTnpqF6GJ-299" value="&lt;font style=&quot;font-size: 25px;&quot;&gt;&lt;b&gt;0&lt;/b&gt;&lt;/font&gt;" style="text;html=1;align=center;verticalAlign=middle;resizable=0;points=[];autosize=1;strokeColor=none;fillColor=none;flipV=0;flipH=1;" parent="1" vertex="1">
          <mxGeometry x="132" y="850" width="40" height="40" as="geometry" />
        </mxCell>
        <mxCell id="d_yNzBiEUvDGTnpqF6GJ-300" value="&lt;font style=&quot;font-size: 25px;&quot;&gt;&lt;b&gt;1&lt;/b&gt;&lt;/font&gt;" style="text;html=1;align=center;verticalAlign=middle;resizable=0;points=[];autosize=1;strokeColor=none;fillColor=none;flipV=0;flipH=1;" parent="1" vertex="1">
          <mxGeometry x="132" y="683" width="40" height="40" as="geometry" />
        </mxCell>
        <mxCell id="d_yNzBiEUvDGTnpqF6GJ-328" style="edgeStyle=orthogonalEdgeStyle;rounded=0;orthogonalLoop=1;jettySize=auto;html=1;endArrow=none;endFill=0;" parent="1" source="d_yNzBiEUvDGTnpqF6GJ-306" edge="1">
          <mxGeometry relative="1" as="geometry">
            <mxPoint x="630" y="539.9999999999998" as="targetPoint" />
          </mxGeometry>
        </mxCell>
        <mxCell id="d_yNzBiEUvDGTnpqF6GJ-331" style="edgeStyle=orthogonalEdgeStyle;rounded=0;orthogonalLoop=1;jettySize=auto;html=1;exitX=1;exitY=0.5;exitDx=0;exitDy=0;exitPerimeter=0;entryX=0.003;entryY=0.859;entryDx=0;entryDy=0;entryPerimeter=0;endArrow=none;endFill=0;" parent="1" source="d_yNzBiEUvDGTnpqF6GJ-306" target="d_yNzBiEUvDGTnpqF6GJ-324" edge="1">
          <mxGeometry relative="1" as="geometry">
            <Array as="points">
              <mxPoint x="992" y="630" />
              <mxPoint x="1272" y="630" />
              <mxPoint x="1272" y="901" />
            </Array>
          </mxGeometry>
        </mxCell>
        <mxCell id="d_yNzBiEUvDGTnpqF6GJ-306" value="" style="pointerEvents=1;verticalLabelPosition=bottom;shadow=0;dashed=0;align=center;html=1;verticalAlign=top;shape=mxgraph.electrical.resistors.resistor_2;" parent="1" vertex="1">
          <mxGeometry x="700" y="530" width="100" height="20" as="geometry" />
        </mxCell>
        <mxCell id="d_yNzBiEUvDGTnpqF6GJ-326" style="edgeStyle=orthogonalEdgeStyle;rounded=0;orthogonalLoop=1;jettySize=auto;html=1;exitX=0;exitY=0.5;exitDx=0;exitDy=0;exitPerimeter=0;endArrow=none;endFill=0;" parent="1" source="d_yNzBiEUvDGTnpqF6GJ-307" edge="1">
          <mxGeometry relative="1" as="geometry">
            <mxPoint x="610" y="870.1904761904761" as="targetPoint" />
          </mxGeometry>
        </mxCell>
        <mxCell id="d_yNzBiEUvDGTnpqF6GJ-329" style="edgeStyle=orthogonalEdgeStyle;rounded=0;orthogonalLoop=1;jettySize=auto;html=1;entryX=0.002;entryY=0.973;entryDx=0;entryDy=0;entryPerimeter=0;endArrow=none;endFill=0;exitX=1;exitY=0.5;exitDx=0;exitDy=0;exitPerimeter=0;" parent="1" source="d_yNzBiEUvDGTnpqF6GJ-307" target="d_yNzBiEUvDGTnpqF6GJ-324" edge="1">
          <mxGeometry relative="1" as="geometry">
            <Array as="points">
              <mxPoint x="992" y="760" />
              <mxPoint x="1182" y="760" />
              <mxPoint x="1182" y="973" />
            </Array>
          </mxGeometry>
        </mxCell>
        <mxCell id="d_yNzBiEUvDGTnpqF6GJ-307" value="" style="pointerEvents=1;verticalLabelPosition=bottom;shadow=0;dashed=0;align=center;html=1;verticalAlign=top;shape=mxgraph.electrical.resistors.resistor_2;" parent="1" vertex="1">
          <mxGeometry x="700" y="860" width="100" height="20" as="geometry" />
        </mxCell>
        <mxCell id="d_yNzBiEUvDGTnpqF6GJ-321" value="Rows" style="text;html=1;align=center;verticalAlign=middle;resizable=0;points=[];autosize=1;strokeColor=none;fillColor=none;fontSize=25;fontStyle=1;horizontal=0;" parent="1" vertex="1">
          <mxGeometry x="70" y="830" width="90" height="40" as="geometry" />
        </mxCell>
        <mxCell id="d_yNzBiEUvDGTnpqF6GJ-322" value="Cols" style="text;html=1;align=center;verticalAlign=middle;resizable=0;points=[];autosize=1;strokeColor=none;fillColor=none;fontSize=25;fontStyle=1" parent="1" vertex="1">
          <mxGeometry x="227" y="930" width="80" height="40" as="geometry" />
        </mxCell>
        <mxCell id="d_yNzBiEUvDGTnpqF6GJ-337" style="edgeStyle=orthogonalEdgeStyle;rounded=0;orthogonalLoop=1;jettySize=auto;html=1;endArrow=none;endFill=0;" parent="1" source="d_yNzBiEUvDGTnpqF6GJ-324" edge="1">
          <mxGeometry relative="1" as="geometry">
            <mxPoint x="582" y="360" as="targetPoint" />
            <Array as="points">
              <mxPoint x="1072" y="550" />
              <mxPoint x="1072" y="361" />
              <mxPoint x="582" y="361" />
            </Array>
          </mxGeometry>
        </mxCell>
        <mxCell id="d_yNzBiEUvDGTnpqF6GJ-341" style="edgeStyle=orthogonalEdgeStyle;rounded=0;orthogonalLoop=1;jettySize=auto;html=1;endArrow=none;endFill=0;" parent="1" source="d_yNzBiEUvDGTnpqF6GJ-324" edge="1">
          <mxGeometry relative="1" as="geometry">
            <mxPoint x="472" y="320" as="targetPoint" />
            <Array as="points">
              <mxPoint x="1112" y="510" />
              <mxPoint x="1112" y="320" />
            </Array>
          </mxGeometry>
        </mxCell>
        <mxCell id="d_yNzBiEUvDGTnpqF6GJ-342" style="edgeStyle=orthogonalEdgeStyle;rounded=0;orthogonalLoop=1;jettySize=auto;html=1;endArrow=none;endFill=0;" parent="1" source="d_yNzBiEUvDGTnpqF6GJ-324" edge="1">
          <mxGeometry relative="1" as="geometry">
            <mxPoint x="362" y="270" as="targetPoint" />
            <Array as="points">
              <mxPoint x="1162" y="470" />
              <mxPoint x="1162" y="270" />
            </Array>
          </mxGeometry>
        </mxCell>
        <mxCell id="d_yNzBiEUvDGTnpqF6GJ-343" style="edgeStyle=orthogonalEdgeStyle;rounded=0;orthogonalLoop=1;jettySize=auto;html=1;endArrow=none;endFill=0;" parent="1" source="d_yNzBiEUvDGTnpqF6GJ-324" edge="1">
          <mxGeometry relative="1" as="geometry">
            <mxPoint x="252" y="230" as="targetPoint" />
            <Array as="points">
              <mxPoint x="1212" y="430" />
              <mxPoint x="1212" y="230" />
              <mxPoint x="252" y="230" />
            </Array>
          </mxGeometry>
        </mxCell>
        <mxCell id="d_yNzBiEUvDGTnpqF6GJ-324" value="" style="rounded=0;whiteSpace=wrap;html=1;" parent="1" vertex="1">
          <mxGeometry x="1372" y="360" width="200" height="630" as="geometry" />
        </mxCell>
        <mxCell id="d_yNzBiEUvDGTnpqF6GJ-325" value="Arduino Uno or Atmel 328p Stand Alone Board" style="text;html=1;align=center;verticalAlign=middle;resizable=0;points=[];autosize=1;strokeColor=none;fillColor=none;" parent="1" vertex="1">
          <mxGeometry x="1337" y="990" width="270" height="30" as="geometry" />
        </mxCell>
        <mxCell id="d_yNzBiEUvDGTnpqF6GJ-332" value="D2" style="text;html=1;align=center;verticalAlign=middle;resizable=0;points=[];autosize=1;strokeColor=none;fillColor=none;" parent="1" vertex="1">
          <mxGeometry x="1367" y="960" width="40" height="30" as="geometry" />
        </mxCell>
        <mxCell id="d_yNzBiEUvDGTnpqF6GJ-333" value="D4" style="text;html=1;align=center;verticalAlign=middle;resizable=0;points=[];autosize=1;strokeColor=none;fillColor=none;" parent="1" vertex="1">
          <mxGeometry x="1367" y="920" width="40" height="30" as="geometry" />
        </mxCell>
        <mxCell id="d_yNzBiEUvDGTnpqF6GJ-334" value="D6" style="text;html=1;align=center;verticalAlign=middle;resizable=0;points=[];autosize=1;strokeColor=none;fillColor=none;" parent="1" vertex="1">
          <mxGeometry x="1367" y="887" width="40" height="30" as="geometry" />
        </mxCell>
        <mxCell id="d_yNzBiEUvDGTnpqF6GJ-336" value="D3" style="text;html=1;align=center;verticalAlign=middle;resizable=0;points=[];autosize=1;strokeColor=none;fillColor=none;" parent="1" vertex="1">
          <mxGeometry x="1367" y="415" width="40" height="30" as="geometry" />
        </mxCell>
        <mxCell id="d_yNzBiEUvDGTnpqF6GJ-338" value="D5" style="text;html=1;align=center;verticalAlign=middle;resizable=0;points=[];autosize=1;strokeColor=none;fillColor=none;" parent="1" vertex="1">
          <mxGeometry x="1367" y="455" width="40" height="30" as="geometry" />
        </mxCell>
        <mxCell id="d_yNzBiEUvDGTnpqF6GJ-344" value="D7" style="text;html=1;align=center;verticalAlign=middle;resizable=0;points=[];autosize=1;strokeColor=none;fillColor=none;" parent="1" vertex="1">
          <mxGeometry x="1367" y="494" width="40" height="30" as="geometry" />
        </mxCell>
        <mxCell id="d_yNzBiEUvDGTnpqF6GJ-345" value="D9" style="text;html=1;align=center;verticalAlign=middle;resizable=0;points=[];autosize=1;strokeColor=none;fillColor=none;" parent="1" vertex="1">
          <mxGeometry x="1367" y="537" width="40" height="30" as="geometry" />
        </mxCell>
        <mxCell id="d_yNzBiEUvDGTnpqF6GJ-347" value="&lt;font style=&quot;font-size: 16px;&quot;&gt;Project: hdd-led-matrix Hardware Diagram&lt;br&gt;Author: Bruno Crema Ferreira - Last Update: 06/24/2023&lt;br&gt;&lt;/font&gt;" style="shape=umlFrame;whiteSpace=wrap;html=1;pointerEvents=0;width=446;height=63;" parent="1" vertex="1">
          <mxGeometry x="34" y="37" width="1592" height="1100" as="geometry" />
        </mxCell>
      </root>
    </mxGraphModel>
  </diagram>
</mxfile>
